<svg width="173" height="173" viewBox="0 0 173 173" fill="none" xmlns="http://www.w3.org/2000/svg">
<path d="M112.4 2.78613L96.7 61.7861C93.4 74.0861 100.8 86.8862 113.1 90.0862L172 105.786C173.6 99.3861 170.7 92.6862 164.8 89.6862L133 73.9861C124.6 70.0861 119.7 61.3862 120.6 52.1862L123.1 17.2861C123.4 10.6861 119 4.58613 112.4 2.78613Z" fill="#F5BC18"/>
<path d="M129.1 61.8863C131.2 65.6863 134.7 68.4863 138.4 69.7863C139.4 70.0863 140.5 70.0863 141.5 69.4863L157.7 60.1863C163.9 56.5863 166 48.3863 162.1 42.1863C158.3 36.2863 150.5 34.6863 144.6 38.2863L128.7 47.4863C127.7 47.9863 127.1 48.9863 126.9 50.0863C126.3 53.8863 127 58.1863 129.1 61.8863Z" fill="#F5BC18"/>
<path d="M2.5 60.4861L61.4 76.1861C73.7 79.4861 86.5 72.0861 89.7 59.7861L105.4 0.786078C99 -0.813922 92.3 2.08609 89.4 7.98609L73.8 39.7861C69.9 48.1861 61.2 53.0861 52 52.1861L17.1 49.6861C10.6 49.4861 4.3 53.8861 2.5 60.4861Z" fill="#40C1EF"/>
<path d="M62 43.9862C65.8 41.8862 68.6 38.3862 69.9 34.6862C70.2 33.6862 70.2 32.5863 69.6 31.5863L60.3 15.3863C56.7 9.18626 48.5 6.98623 42.3 10.9862C36.4 14.7862 34.8 22.5862 38.4 28.4862L47.6 44.3863C48.1 45.3863 49.1 45.9862 50.2 46.1862C54 46.9862 58.3 46.2862 62 43.9862Z" fill="#40C1EF"/>
<path d="M60.3 169.886L76 110.886C79.3 98.5862 71.9 85.7862 59.6 82.5862L0.70002 66.8862C-0.89998 73.2862 2.00002 79.9862 7.90002 82.9862L39.7 98.6862C48.1 102.586 53 111.286 52.1 120.486L49.6 155.386C49.4 161.886 53.8 168.086 60.3 169.886Z" fill="#8FC640"/>
<path d="M43.6 110.686C41.5 106.886 38 104.086 34.3 102.786C33.3 102.486 32.2 102.486 31.2 103.086L15 112.386C8.8 115.986 6.60001 124.186 10.6 130.386C14.4 136.286 22.2 137.886 28.1 134.286L44 125.086C45 124.586 45.6 123.586 45.8 122.486C46.6 118.786 45.9 114.486 43.6 110.686Z" fill="#8FC640"/>
<path d="M170.2 112.186L111.3 96.4862C99 93.1862 86.2 100.586 83 112.886L67.3 171.886C73.7 173.486 80.4 170.586 83.3 164.686L99 132.886C102.9 124.486 111.6 119.586 120.8 120.486L155.7 122.986C162.4 123.186 168.4 118.786 170.2 112.186Z" fill="#F15A52"/>
<path d="M111.1 128.886C107.3 130.986 104.6 134.486 103.2 138.186C102.9 139.186 102.9 140.286 103.5 141.286L112.8 157.486C116.4 163.686 124.6 165.886 130.8 161.886C136.7 158.086 138.3 150.286 134.7 144.386L125.5 128.486C125 127.486 124 126.886 122.9 126.686C119.3 125.986 115 126.586 111.1 128.886Z" fill="#F15A52"/>
</svg>
